<svg xmlns="http://www.w3.org/2000/svg" viewBox="0 0 1200 630" font-family="Inter, Arial, sans-serif">
  <rect width="1200" height="630" fill="#07090d" />
  <g stroke="#ffffff" stroke-opacity="0.05" stroke-width="1">
    <path d="M0 72h1200M0 144h1200M0 216h1200M0 288h1200M0 360h1200M0 432h1200M0 504h1200M0 576h1200" />
    <path d="M72 0v630M144 0v630M216 0v630M288 0v630M360 0v630M432 0v630M504 0v630M576 0v630M648 0v630M720 0v630M792 0v630M864 0v630M936 0v630M1008 0v630M1080 0v630" />
  </g>

  <g transform="translate(82,76)">
    <g fill="none" stroke="#58a6ff" stroke-width="3.4" stroke-linecap="round" stroke-linejoin="round">
      <path d="M22 4 7 9v15c0 11 8.4 18.6 15 21.5 6.6-2.9 15-10.5 15-21.5V9z" />
      <path d="M15 23l6 6 11-13" />
    </g>
    <text x="58" y="35" fill="#f7f4ec" font-size="32" font-weight="760">Bequest</text>
  </g>

  <g transform="translate(735,158)">
    <rect x="0" y="0" width="382" height="310" rx="16" fill="#0d1118" stroke="#ffffff" stroke-opacity="0.18" />
    <rect x="18" y="18" width="346" height="274" rx="10" fill="none" stroke="#ffffff" stroke-opacity="0.09" />
    <text x="36" y="58" fill="#f7f4ec" font-size="23" font-weight="760">Estate console</text>
    <rect x="250" y="34" width="92" height="32" rx="16" fill="#0f2945" stroke="#58a6ff" stroke-opacity="0.55" />
    <circle cx="269" cy="50" r="5" fill="#58a6ff" />
    <text x="281" y="56" fill="#58a6ff" font-size="14" font-weight="700">Triggered</text>

    <rect x="36" y="92" width="208" height="82" rx="8" fill="#171d26" stroke="#ffffff" stroke-opacity="0.12" />
    <text x="52" y="126" fill="#a9b0bd" font-size="14" font-weight="800">ESTATE OBJECT</text>
    <text x="52" y="154" fill="#f7f4ec" font-size="21" font-weight="760">0xfd9880...15c6d0</text>

    <rect x="258" y="92" width="84" height="82" rx="8" fill="#171d26" stroke="#ffffff" stroke-opacity="0.12" />
    <circle cx="286" cy="134" r="18" fill="#102742" stroke="#58a6ff" stroke-opacity="0.6" />
    <text x="280" y="141" fill="#58a6ff" font-size="17" font-weight="760">0</text>
    <text x="313" y="128" fill="#a9b0bd" font-size="12" font-weight="800">OWNER</text>
    <text x="313" y="151" fill="#f7f4ec" font-size="17" font-weight="760">zk</text>

    <rect x="36" y="190" width="306" height="54" rx="8" fill="#1b2029" stroke="#ffffff" stroke-opacity="0.12" />
    <text x="52" y="213" fill="#58a6ff" font-size="12" font-weight="800">SUI + OBJECTS</text>
    <text x="52" y="235" fill="#a9b0bd" font-size="17" font-weight="500">Escrowed portfolio</text>
    <text x="246" y="230" fill="#f7f4ec" font-size="18" font-weight="760">ready</text>

    <g fill="#0e2d27" stroke="#69d7ae" stroke-opacity="0.45">
      <rect x="36" y="260" width="88" height="30" rx="6" />
      <rect x="134" y="260" width="88" height="30" rx="6" />
      <rect x="232" y="260" width="88" height="30" rx="6" />
    </g>
    <g fill="#69d7ae" font-size="13" font-weight="760">
      <text x="58" y="280">Active</text>
      <text x="154" y="280">Pending</text>
      <text x="251" y="280">Claim</text>
    </g>
  </g>

  <text x="82" y="262" fill="#58a6ff" font-size="18" font-weight="800">LIVE ON SUI TESTNET</text>
  <text x="80" y="342" fill="#f7f4ec" font-size="76" font-weight="850">The succession</text>
  <text x="80" y="426" fill="#f7f4ec" font-size="76" font-weight="850">layer for Sui</text>
  <text x="80" y="510" fill="#f7f4ec" font-size="76" font-weight="850">portfolios.</text>
  <text x="84" y="570" fill="#a9b0bd" font-size="27" font-weight="520">Google-ready heirs. Seal-gated letters. Verifiable triggers.</text>
</svg>
